<?xml version="1.0" encoding="utf-8"?>
<!-- Generator: Adobe Illustrator 22.1.0, SVG Export Plug-In . SVG Version: 6.00 Build 0)  -->
<svg version="1.1" xmlns="http://www.w3.org/2000/svg" xmlns:xlink="http://www.w3.org/1999/xlink" x="0px" y="0px"
	 viewBox="0 0 2949.1 1555.2" style="enable-background:new 0 0 2949.1 1555.2;" xml:space="preserve">
<style type="text/css">
	.st0{fill:#EC9B5E;}
	.st1{fill:none;stroke:#FFFFFF;stroke-width:20;stroke-miterlimit:10;}
	.st2{fill:#EC9B5E;stroke:#FFFFFF;stroke-width:20;stroke-miterlimit:10;}
</style>
<g id="Layer_2">
	<g id="Layer_2_1_">
		<rect class="st0" width="2949.1" height="1555.2"/>
	</g>
</g>
<g id="Layer_1">
	<rect id="shape0" x="216" y="56.5" class="st1" width="698.4" height="70.6"/>
	<rect id="shape1" x="216" y="175" class="st1" width="698.4" height="98.6"/>
	<rect id="shape2" x="216" y="310.3" class="st1" width="245.9" height="94"/>
	<rect id="shape7" x="2435.4" y="597" class="st1" width="449.2" height="302.7"/>
	<g>
		<rect id="shape6" x="2435.4" y="249" class="st1" width="449.2" height="291"/>
		<ellipse id="shape9" class="st2" cx="2660" cy="261.6" rx="224.6" ry="224.6"/>
	</g>
	<circle id="shape8" class="st2" cx="216" cy="230.4" r="173.9"/>
	<rect id="shape2_1_" x="500.6" y="310.3" class="st1" width="186.4" height="94"/>
	<rect id="shape2_2_" x="728" y="310.3" class="st1" width="186.4" height="94"/>
	<g>
		<rect id="shape5" x="1057" y="437.8" class="st1" width="1018.8" height="339.8"/>
		<rect id="shape5_1_" x="1189" y="534.1" class="st1" width="742" height="73.6"/>
	</g>
	<rect id="shape3" x="52.4" y="1025.4" class="st1" width="892.1" height="471.7"/>
	<rect id="shape4" x="52.4" y="939.7" class="st1" width="186.5" height="85.7"/>
	<rect id="shape0_1_" x="238.9" y="939.7" class="st1" width="284.2" height="85.7"/>
	<rect id="shape01" x="523.1" y="939.7" class="st1" width="186.5" height="85.7"/>
	<rect id="shape02" x="709.6" y="939.7" class="st1" width="234.9" height="85.7"/>
</g>
</svg>
